# xmcd
#
# Track frame offsets: 
#        150
#        2177
#        32126
#        63432
#        84217
#        101104
#        105104
#        133877
#
# Disc length: 2110 seconds
#
# Revision: 1
# Processed by: cddbd v1.5.2PL0 Copyright (c) Steve Scherf et al.
# Submitted via: ExactAudioCopyFreeDBPlugin 1.0
#
DISCID=5d083c08
DTITLE=M.F.S.B. - Love is the Message
DYEAR=1973
DGENRE=Soul
TTITLE0=Zack's Fanfare
TTITLE1=Love is the Message
TTITLE2=Cheaper to Keep Her
TTITLE3=My One and Only Love
TTITLE4=TSOP (The Sound of Philadelphia) ("Soul Train" Theme ft The Th
TTITLE4=ree Degrees)
TTITLE5=Zack's Fanfare (reprise)
TTITLE6=Touch Me in the Morning
TTITLE7=Bitter Sweet
EXTD=
EXTT0=
EXTT1=
EXTT2=
EXTT3=
EXTT4=
EXTT5=
EXTT6=
EXTT7=
PLAYORDER=
